IKResults
version=1
nRows=12
nColumns=50
inDegrees=yes

Units are S.I. units (second, meters, Newtons, ...)
If the header above contains a line with 'inDegrees', this indicates whether rotational values are in degrees (yes) or radians (no).

endheader
time	pelvis_tilt	pelvis_list	pelvis_rotation	pelvis_tx	pelvis_ty	pelvis_tz	hip_flexion_r	hip_adduction_r	hip_rotation_r	knee_angle_r	knee_angle_r_beta	ankle_angle_r	subtalar_angle_r	mtp_angle_r	hip_flexion_l	hip_adduction_l	hip_rotation_l	knee_angle_l	knee_angle_l_beta	socket_flexion	socket_adduction	socket_rotation	socket_tx	socket_ty	socket_tz	pros_ankle_rx	pros_ankle_ry	pros_ankle_rz	pros_ankle_tx	pros_ankle_ty	pros_ankle_tz	foot_flex	lumbar_extension	lumbar_bending	lumbar_rotation	arm_flex_r	arm_add_r	arm_rot_r	elbow_flex_r	pro_sup_r	wrist_flex_r	wrist_dev_r	arm_flex_l	arm_add_l	arm_rot_l	elbow_flex_l	pro_sup_l	wrist_flex_l	wrist_dev_l
      0.60209000	      0.04471060	     -4.03209549	      3.38693247	     -0.01059146	      1.01275939	      0.34897050	     26.24765627	      2.40587704	     -1.52192929	      7.01881389	      0.12250141	     14.68109283	      0.00000000	      0.00000000	    -18.22906894	     -4.07290937	     -5.79358165	     15.25566537	      0.26626159	      1.50843751	      1.32083511	     -4.31631586	      0.00000000	      0.00028202	      0.00000000	      0.00000000	      0.00000000	      0.00000000	      0.00000000	      0.00000000	      0.00000000	     25.60326714	    -20.31485695	      2.38223845	     -2.30032713	      0.00000000	     -6.85689383	      0.00000000	     77.51651655	     84.36429323	      0.00000000	      0.00000000	      0.00000000	     -6.85689383	      0.00000000	     77.51651655	     84.36429323	      0.00000000	      0.00000000
      0.60627000	     -0.03163394	     -4.18368377	      3.58837754	     -0.00456964	      1.01145832	      0.34895821	     26.45669468	      2.53186015	     -1.45127872	      7.26151827	      0.12673740	     14.51281781	      0.00000000	      0.00000000	    -18.28523122	     -4.37774200	     -5.78570628	     15.50725314	      0.27065263	      1.32148900	      1.25718716	     -4.35667154	      0.00000000	      0.00033876	      0.00000000	      0.00000000	      0.00000000	      0.00000000	      0.00000000	      0.00000000	      0.00000000	     25.83066470	    -20.30455934	      2.77098974	     -2.47797736	      0.00000000	     -6.86268364	      0.00000000	     77.51302882	     84.36973457	      0.00000000	      0.00000000	      0.00000000	     -6.86268364	      0.00000000	     77.51302882	     84.36973457	      0.00000000	      0.00000000
      0.61045000	     -0.03318753	     -4.23173803	      3.80124230	      0.00164170	      1.01033076	      0.34891635	     26.48225314	      2.56434141	     -1.26236868	      7.41234250	      0.12936978	     14.40474548	      0.00000000	      0.00000000	    -18.50638958	     -4.52992831	     -5.70245540	     15.63311621	      0.27284935	      1.18061726	      1.31017131	     -4.40899422	      0.00000000	      0.00021684	      0.00000000	      0.00000000	      0.00000000	      0.00000000	      0.00000000	      0.00000000	      0.00000000	     25.86543846	    -20.19491089	      2.88858044	     -2.49611403	      0.00000000	     -6.86393161	      0.00000000	     77.51227785	     84.37090690	      0.00000000	      0.00000000	      0.00000000	     -6.86393161	      0.00000000	     77.51227785	     84.37090690	      0.00000000	      0.00000000
      0.61463000	     -0.05913080	     -4.41725356	      3.99767473	      0.00774816	      1.00908409	      0.34890536	     26.79803761	      2.71165575	     -1.34110261	      8.04504693	      0.14041256	     14.12406389	      0.00000000	      0.00000000	    -18.60626320	     -4.88504218	     -5.71858163	     15.91456376	      0.27776154	      1.00378529	      1.22489422	     -4.45158236	      0.00000000	      0.00030564	      0.00000000	      0.00000000	      0.00000000	      0.00000000	      0.00000000	      0.00000000	      0.00000000	     26.06444734	    -20.19801968	      3.36984073	     -2.66960005	      0.00000000	     -6.87169073	      0.00000000	     77.50760798	     84.37819660	      0.00000000	      0.00000000	      0.00000000	     -6.87169073	      0.00000000	     77.50760798	     84.37819660	      0.00000000	      0.00000000
      0.61882000	     -0.05997592	     -4.48102011	      4.21794332	      0.01413866	      1.00800724	      0.34884982	     26.77274002	      2.76587543	     -1.12979379	      8.23277525	      0.14368903	     14.00334948	      0.00000000	      0.00000000	    -18.81894023	     -5.04737067	     -5.64161828	     16.04169518	      0.27998040	      0.84056983	      1.30747268	     -4.47812467	      0.00000000	      0.00010895	      0.00000000	      0.00000000	      0.00000000	      0.00000000	      0.00000000	      0.00000000	      0.00000000	     26.06161143	    -20.08825430	      3.44855536	     -2.67304487	      0.00000000	     -6.87257356	      0.00000000	     77.50707747	     84.37902546	      0.00000000	      0.00000000	      0.00000000	     -6.87257356	      0.00000000	     77.50707747	     84.37902546	      0.00000000	      0.00000000
      0.62300000	     -0.02225615	     -4.71279283	      4.33492310	      0.02017575	      1.00688257	      0.34889987	     27.13845486	      2.99040974	     -1.20736805	      9.13486950	      0.15943355	     13.49933622	      0.00000000	      0.00000000	    -18.94534438	     -5.41943529	     -5.70337053	     16.37265880	      0.28575680	      0.59917207	      1.24409111	     -4.46535238	      0.00000000	      0.00013821	      0.00000000	      0.00000000	      0.00000000	      0.00000000	      0.00000000	      0.00000000	      0.00000000	     26.30507136	    -20.23376709	      4.00630026	     -2.78504096	      0.00000000	     -6.87897351	      0.00000000	     77.50322920	     84.38503609	      0.00000000	      0.00000000	      0.00000000	     -6.87897351	      0.00000000	     77.50322920	     84.38503609	      0.00000000	      0.00000000
      0.62718000	      0.05023011	     -4.80639498	      4.51289081	      0.02649903	      1.00588772	      0.34888532	     27.25831901	      3.07038091	     -1.16063981	      9.80099778	      0.17105968	     13.23591837	      0.00000000	      0.00000000	    -19.16534675	     -5.64117929	     -5.68053302	     16.61799824	      0.29003878	      0.39603606	      1.24167271	     -4.50115214	      0.00000000	     -0.00007305	      0.00000000	      0.00000000	      0.00000000	      0.00000000	      0.00000000	      0.00000000	      0.00000000	     26.41115767	    -20.13261968	      4.35779262	     -2.80068721	      0.00000000	     -6.88305762	      0.00000000	     77.50077514	     84.38887071	      0.00000000	      0.00000000	      0.00000000	     -6.88305762	      0.00000000	     77.50077514	     84.38887071	      0.00000000	      0.00000000
      0.63136000	     -0.30760370	     -4.81489603	      4.54189406	      0.03261048	      1.00407330	      0.34933593	     28.87161659	      2.97151036	     -1.66372246	     12.44450141	      0.21719752	     13.90841543	      0.00000000	      0.00000000	    -18.82955141	     -5.72817632	     -5.60738686	     17.37220739	      0.30320222	      0.63442071	      1.28391507	     -4.32325096	      0.00000000	      0.00009068	      0.00000000	      0.00000000	      0.00000000	      0.00000000	      0.00000000	      0.00000000	      0.00000000	     26.33481718	    -19.76679476	      4.35015848	     -2.80610826	      0.00000000	     -6.94186509	      0.00000000	     77.46556069	     84.44401487	      0.00000000	      0.00000000	      0.00000000	     -6.94186509	      0.00000000	     77.46556069	     84.44401487	      0.00000000	      0.00000000
      0.63554000	     -0.16021781	     -5.00129926	      4.70188063	      0.03901957	      1.00320941	      0.34932996	     29.00394717	      3.13219123	     -1.81197974	     13.32211776	      0.23251482	     13.47584094	      0.00000000	      0.00000000	    -19.12290238	     -6.04139575	     -5.67807272	     17.74504748	      0.30970950	      0.58034156	      1.34233859	     -4.35775969	      0.00000000	     -0.00005862	      0.00000000	      0.00000000	      0.00000000	      0.00000000	      0.00000000	      0.00000000	      0.00000000	     26.31853955	    -19.86825843	      4.74033893	     -2.82683640	      0.00000000	     -6.96415986	      0.00000000	     77.45227480	     84.46488254	      0.00000000	      0.00000000	      0.00000000	     -6.96415986	      0.00000000	     77.45227480	     84.46488254	      0.00000000	      0.00000000
      0.63972000	     -0.07632167	     -5.17419897	      4.82052796	      0.04541553	      1.00236522	      0.34938632	     29.03433558	      3.33646324	     -1.68602515	     13.88376598	      0.24231743	     12.82550601	      0.00000000	      0.00000000	    -19.28831417	     -6.30810292	     -5.71672002	     18.04901051	      0.31501466	      0.27657900	      1.39524401	     -4.27256360	      0.00000000	     -0.00027932	      0.00000000	      0.00000000	      0.00000000	      0.00000000	      0.00000000	      0.00000000	      0.00000000	     26.40775285	    -19.92015520	      5.07701124	     -2.82368154	      0.00000000	     -6.96892478	      0.00000000	     77.44944006	     84.46933956	      0.00000000	      0.00000000	      0.00000000	     -6.96892478	      0.00000000	     77.44944006	     84.46933956	      0.00000000	      0.00000000
      0.64390000	     -0.08373173	     -5.27736738	      4.89606505	      0.05183029	      1.00125459	      0.34959593	     29.69849495	      3.37954316	     -1.99893646	     15.52553247	      0.27097166	     12.73035904	      0.00000000	      0.00000000	    -19.34384168	     -6.50349278	     -5.78022564	     18.64795423	      0.32546820	      0.32655734	      1.48675224	     -4.21607054	      0.00000000	     -0.00041093	      0.00000000	      0.00000000	      0.00000000	      0.00000000	      0.00000000	      0.00000000	      0.00000000	     26.32692090	    -19.84534427	      5.29785484	     -2.77002566	      0.00000000	     -7.00710429	      0.00000000	     77.42677832	     84.50502158	      0.00000000	      0.00000000	      0.00000000	     -7.00710429	      0.00000000	     77.42677832	     84.50502158	      0.00000000	      0.00000000
      0.64808000	      0.03070709	     -5.51423916	      5.04948934	      0.05837710	      1.00048911	      0.34962110	     29.80955293	      3.57916002	     -2.20522654	     16.35172530	      0.28539144	     12.09022881	      0.00000000	      0.00000000	    -19.50449561	     -6.88915811	     -5.86663025	     19.05433599	      0.33256090	      0.06980331	      1.49867152	     -4.25205494	      0.00000000	     -0.00053928	      0.00000000	      0.00000000	      0.00000000	      0.00000000	      0.00000000	      0.00000000	      0.00000000	     26.32997473	    -19.87624479	      5.73937089	     -2.71975131	      0.00000000	     -7.01918400	      0.00000000	     77.41963038	     84.51629790	      0.00000000	      0.00000000	      0.00000000	     -7.01918400	      0.00000000	     77.41963038	     84.51629790	      0.00000000	      0.00000000
